<svg xmlns="http://www.w3.org/2000/svg" xmlns:xlink="http://www.w3.org/1999/xlink" width="500" zoomAndPan="magnify" viewBox="0 0 375 374.999991" height="500" preserveAspectRatio="xMidYMid meet" version="1.0"><defs><g><g id="id1"/></g><clipPath id="id2"><path d="M 164 35.925781 L 306 35.925781 L 306 218 L 164 218 Z M 164 35.925781 " clip-rule="nonzero"/></clipPath><clipPath id="id3"><path d="M 0 235 L 250 235 L 250 298.425781 L 0 298.425781 Z M 0 235 " clip-rule="nonzero"/></clipPath></defs><path fill="rgb(81.959534%, 82.749939%, 83.139038%)" d="M 293.03125 61.4375 L 269.941406 90.238281 C 272.257812 91.703125 274.523438 93.226562 276.800781 94.832031 L 319.375 80.71875 C 311.253906 73.390625 302.472656 66.964844 293.03125 61.4375 Z M 293.03125 61.4375 " fill-opacity="1" fill-rule="nonzero"/><path fill="rgb(81.959534%, 82.749939%, 83.139038%)" d="M 315.863281 258.105469 L 360.726562 258.105469 C 362.621094 253.339844 364.28125 248.496094 365.710938 243.570312 C 367.136719 238.648438 368.324219 233.664062 369.273438 228.625 C 370.21875 223.589844 370.921875 218.515625 371.378906 213.410156 C 371.839844 208.300781 372.050781 203.1875 372.015625 198.058594 C 371.980469 192.933594 371.699219 187.820312 371.171875 182.71875 C 370.644531 177.617188 369.875 172.554688 368.859375 167.53125 C 367.84375 162.503906 366.589844 157.539062 365.097656 152.636719 C 363.601562 147.730469 361.875 142.910156 359.917969 138.171875 L 325.617188 165.351562 C 326.664062 169.191406 327.53125 173.070312 328.214844 176.992188 C 328.902344 180.910156 329.40625 184.855469 329.726562 188.820312 C 330.046875 192.785156 330.183594 196.757812 330.136719 200.738281 C 330.089844 204.71875 329.855469 208.6875 329.441406 212.644531 C 329.023438 216.601562 328.425781 220.53125 327.644531 224.433594 C 326.863281 228.335938 325.902344 232.191406 324.765625 236.003906 C 323.625 239.816406 322.3125 243.570312 320.824219 247.261719 C 319.339844 250.953125 317.683594 254.566406 315.863281 258.105469 Z M 315.863281 258.105469 " fill-opacity="1" fill-rule="nonzero"/><path fill="rgb(81.959534%, 82.749939%, 83.139038%)" d="M 77.757812 163.199219 C 78.699219 159.96875 79.765625 156.78125 80.957031 153.632812 C 82.148438 150.484375 83.460938 147.390625 84.898438 144.34375 C 86.332031 141.300781 87.882812 138.316406 89.554688 135.394531 C 91.222656 132.472656 93.003906 129.621094 94.894531 126.835938 C 96.789062 124.054688 98.785156 121.347656 100.890625 118.722656 C 102.996094 116.097656 105.199219 113.558594 107.503906 111.101562 C 109.808594 108.648438 112.203125 106.289062 114.695312 104.023438 C 117.183594 101.757812 119.757812 99.59375 122.414062 97.53125 C 125.074219 95.464844 127.808594 93.507812 130.621094 91.660156 C 133.433594 89.808594 136.316406 88.074219 139.265625 86.449219 C 142.214844 84.828125 145.21875 83.320312 148.289062 81.933594 C 151.355469 80.542969 154.472656 79.277344 157.636719 78.136719 C 160.804688 76.992188 164.007812 75.972656 167.253906 75.082031 C 170.5 74.1875 173.777344 73.425781 177.082031 72.789062 C 180.390625 72.152344 183.714844 71.648438 187.058594 71.273438 C 190.40625 70.898438 193.761719 70.65625 197.125 70.542969 L 213.546875 39.5625 L 212.3125 39.5625 C 210.078125 39.5625 207.84375 39.609375 205.613281 39.703125 C 203.378906 39.796875 201.148438 39.9375 198.921875 40.125 C 196.695312 40.3125 194.472656 40.546875 192.257812 40.828125 C 190.039062 41.109375 187.828125 41.4375 185.625 41.808594 C 183.421875 42.183594 181.226562 42.605469 179.042969 43.070312 C 176.855469 43.535156 174.679688 44.046875 172.515625 44.605469 C 170.351562 45.160156 168.199219 45.761719 166.0625 46.410156 C 163.921875 47.058594 161.796875 47.75 159.6875 48.484375 C 157.578125 49.222656 155.484375 50.003906 153.40625 50.828125 C 151.328125 51.652344 149.269531 52.519531 147.230469 53.429688 C 145.1875 54.339844 143.167969 55.292969 141.167969 56.289062 C 139.167969 57.285156 137.1875 58.320312 135.230469 59.398438 C 133.273438 60.476562 131.339844 61.597656 129.429688 62.757812 C 127.519531 63.917969 125.632812 65.117188 123.773438 66.355469 C 121.914062 67.59375 120.082031 68.871094 118.277344 70.1875 C 116.46875 71.5 114.691406 72.855469 112.941406 74.246094 C 111.191406 75.636719 109.472656 77.0625 107.785156 78.523438 C 106.09375 79.984375 104.4375 81.484375 102.808594 83.015625 C 101.183594 84.546875 99.589844 86.113281 98.027344 87.710938 C 96.46875 89.308594 94.941406 90.941406 93.449219 92.605469 C 91.957031 94.265625 90.5 95.960938 89.078125 97.683594 C 87.65625 99.410156 86.273438 101.160156 84.925781 102.945312 C 83.578125 104.726562 82.269531 106.535156 80.996094 108.371094 C 79.726562 110.210938 78.492188 112.074219 77.296875 113.960938 C 76.105469 115.851562 74.953125 117.761719 73.839844 119.699219 C 72.726562 121.636719 71.652344 123.597656 70.625 125.578125 C 69.59375 127.5625 68.605469 129.5625 67.65625 131.585938 C 66.710938 133.613281 65.808594 135.652344 64.945312 137.714844 C 64.085938 139.777344 63.269531 141.855469 62.492188 143.953125 C 61.71875 146.046875 60.992188 148.160156 60.304688 150.285156 C 59.621094 152.410156 58.980469 154.550781 58.386719 156.703125 C 57.792969 158.859375 57.242188 161.023438 56.738281 163.199219 Z M 77.757812 163.199219 " fill-opacity="1" fill-rule="nonzero"/><g clip-path="url(#id2)"><path fill="rgb(93.728638%, 24.708557%, 24.308777%)" d="M 231.742188 35.925781 L 169.148438 154.351562 L 208.003906 144.507812 L 164.839844 217.140625 L 305.832031 99.917969 L 228.148438 119.339844 L 295.046875 35.925781 Z M 231.742188 35.925781 " fill-opacity="1" fill-rule="nonzero"/></g><path fill="rgb(23.919678%, 30.198669%, 32.939148%)" d="M 153.382812 224.324219 L 178.464844 166.078125 L 138.800781 180.933594 L 174.210938 113.921875 C 169.070312 114.375 164.015625 115.304688 159.050781 116.714844 C 154.082031 118.125 149.296875 119.988281 144.683594 122.308594 C 140.070312 124.628906 135.71875 127.359375 131.625 130.503906 C 127.535156 133.648438 123.773438 137.152344 120.34375 141.007812 L 87.910156 177.585938 L 46.144531 177.585938 C 44.636719 177.585938 43.132812 177.660156 41.632812 177.804688 C 40.132812 177.953125 38.640625 178.175781 37.164062 178.46875 C 35.683594 178.761719 34.222656 179.128906 32.78125 179.5625 C 31.335938 180 29.917969 180.507812 28.523438 181.085938 C 27.132812 181.660156 25.769531 182.304688 24.441406 183.015625 C 23.109375 183.726562 21.820312 184.5 20.566406 185.335938 C 19.3125 186.171875 18.101562 187.070312 16.933594 188.027344 C 15.769531 188.980469 14.652344 189.992188 13.585938 191.058594 C 12.519531 192.125 11.507812 193.238281 10.550781 194.402344 C 9.59375 195.570312 8.699219 196.777344 7.859375 198.03125 C 7.023438 199.285156 6.246094 200.574219 5.535156 201.90625 C 4.824219 203.234375 4.183594 204.59375 3.605469 205.988281 C 3.027344 207.378906 2.519531 208.796875 2.082031 210.238281 C 1.644531 211.683594 1.277344 213.140625 0.984375 214.621094 C 0.691406 216.097656 0.46875 217.589844 0.320312 219.089844 C 0.171875 220.589844 0.0976562 222.09375 0.0976562 223.597656 L 0.0976562 224.324219 Z M 153.382812 224.324219 " fill-opacity="1" fill-rule="nonzero"/><path fill="rgb(23.919678%, 30.198669%, 32.939148%)" d="M 359.78125 113.59375 L 313.226562 113.59375 L 174.144531 224.324219 L 261.0625 224.324219 L 317.34375 171.113281 L 283.535156 171.113281 Z M 359.78125 113.59375 " fill-opacity="1" fill-rule="nonzero"/><g clip-path="url(#id3)"><path fill="rgb(23.919678%, 30.198669%, 32.939148%)" d="M 0.0976562 235.105469 L 0.0976562 249.136719 C 0.0976562 249.773438 0.160156 250.40625 0.285156 251.03125 C 0.410156 251.65625 0.59375 252.261719 0.839844 252.851562 C 1.082031 253.441406 1.382812 254 1.738281 254.53125 C 2.089844 255.0625 2.492188 255.550781 2.945312 256.003906 C 3.394531 256.453125 3.886719 256.855469 4.417969 257.210938 C 4.945312 257.5625 5.507812 257.863281 6.097656 258.105469 C 6.683594 258.351562 7.292969 258.535156 7.917969 258.660156 C 8.542969 258.785156 9.175781 258.847656 9.8125 258.847656 L 29.695312 258.847656 C 29.941406 260.21875 30.246094 261.582031 30.613281 262.929688 C 30.976562 264.277344 31.398438 265.605469 31.882812 266.917969 C 32.363281 268.226562 32.898438 269.515625 33.492188 270.78125 C 34.085938 272.042969 34.734375 273.28125 35.433594 274.488281 C 36.136719 275.695312 36.886719 276.871094 37.691406 278.011719 C 38.496094 279.15625 39.347656 280.261719 40.246094 281.328125 C 41.144531 282.394531 42.089844 283.421875 43.078125 284.410156 C 44.070312 285.394531 45.097656 286.335938 46.171875 287.230469 C 47.242188 288.128906 48.351562 288.976562 49.496094 289.773438 C 50.640625 290.574219 51.820312 291.324219 53.03125 292.019531 C 54.238281 292.714844 55.480469 293.359375 56.746094 293.949219 C 58.011719 294.535156 59.300781 295.070312 60.613281 295.546875 C 61.925781 296.023438 63.257812 296.441406 64.609375 296.800781 C 65.957031 297.164062 67.320312 297.464844 68.695312 297.707031 C 70.070312 297.949219 71.457031 298.128906 72.847656 298.25 C 74.238281 298.371094 75.632812 298.433594 77.03125 298.433594 C 78.425781 298.433594 79.820312 298.371094 81.210938 298.25 C 82.605469 298.128906 83.988281 297.949219 85.363281 297.707031 C 86.738281 297.464844 88.101562 297.164062 89.453125 296.800781 C 90.800781 296.441406 92.132812 296.023438 93.445312 295.546875 C 94.757812 295.070312 96.046875 294.535156 97.316406 293.949219 C 98.582031 293.359375 99.820312 292.714844 101.03125 292.019531 C 102.242188 291.324219 103.417969 290.574219 104.5625 289.773438 C 105.710938 288.976562 106.816406 288.128906 107.890625 287.230469 C 108.960938 286.335938 109.992188 285.394531 110.980469 284.410156 C 111.96875 283.421875 112.914062 282.394531 113.8125 281.328125 C 114.714844 280.261719 115.566406 279.15625 116.367188 278.011719 C 117.171875 276.871094 117.925781 275.695312 118.625 274.488281 C 119.328125 273.28125 119.972656 272.042969 120.566406 270.78125 C 121.160156 269.515625 121.699219 268.226562 122.179688 266.917969 C 122.660156 265.605469 123.082031 264.277344 123.449219 262.929688 C 123.8125 261.582031 124.117188 260.21875 124.367188 258.847656 L 224.523438 258.847656 L 249.632812 235.105469 Z M 0.0976562 235.105469 " fill-opacity="1" fill-rule="nonzero"/></g><g fill="rgb(23.919678%, 30.198669%, 32.939148%)" fill-opacity="1"><g transform="translate(83.454634, 357.278705)"><g><path d="M 27 -45 C 31.238281 -45 35.050781 -44.351562 38.4375 -43.0625 C 41.820312 -41.78125 44.507812 -39.882812 46.5 -37.375 C 48.5 -34.875 49.5 -31.820312 49.5 -28.21875 L 35.9375 -28.21875 C 35.9375 -30.0625 35.117188 -31.550781 33.484375 -32.6875 C 31.859375 -33.820312 29.890625 -34.390625 27.578125 -34.390625 C 24.234375 -34.390625 21.703125 -33.5 19.984375 -31.71875 C 18.273438 -29.945312 17.421875 -27.429688 17.421875 -24.171875 L 17.421875 -20.0625 C 17.421875 -16.800781 18.273438 -14.28125 19.984375 -12.5 C 21.703125 -10.71875 24.234375 -9.828125 27.578125 -9.828125 C 29.890625 -9.828125 31.859375 -10.375 33.484375 -11.46875 C 35.117188 -12.5625 35.9375 -13.96875 35.9375 -15.6875 L 25.90625 -15.6875 L 25.90625 -24.6875 L 49.5 -24.6875 L 49.5 0 L 42.171875 0 L 40.75 -4.375 C 36.726562 -0.945312 31.457031 0.765625 24.9375 0.765625 C 17.613281 0.765625 12.109375 -1.148438 8.421875 -4.984375 C 4.734375 -8.816406 2.890625 -14.523438 2.890625 -22.109375 C 2.890625 -29.609375 4.976562 -35.296875 9.15625 -39.171875 C 13.332031 -43.054688 19.28125 -45 27 -45 Z M 27 -45 "/></g></g></g><g fill="rgb(23.919678%, 30.198669%, 32.939148%)" fill-opacity="1"><g transform="translate(142.721698, 357.278705)"><g><path d="M 26.734375 -45 C 34.367188 -45 40.265625 -43.046875 44.421875 -39.140625 C 48.578125 -35.242188 50.65625 -29.566406 50.65625 -22.109375 C 50.65625 -14.648438 48.578125 -8.972656 44.421875 -5.078125 C 40.265625 -1.179688 34.367188 0.765625 26.734375 0.765625 C 19.109375 0.765625 13.226562 -1.171875 9.09375 -5.046875 C 4.957031 -8.921875 2.890625 -14.609375 2.890625 -22.109375 C 2.890625 -29.609375 4.957031 -35.296875 9.09375 -39.171875 C 13.226562 -43.054688 19.109375 -45 26.734375 -45 Z M 26.734375 -34.390625 C 23.691406 -34.390625 21.378906 -33.46875 19.796875 -31.625 C 18.210938 -29.78125 17.421875 -27.296875 17.421875 -24.171875 L 17.421875 -20.0625 C 17.421875 -16.925781 18.210938 -14.4375 19.796875 -12.59375 C 21.378906 -10.75 23.691406 -9.828125 26.734375 -9.828125 C 29.785156 -9.828125 32.113281 -10.75 33.71875 -12.59375 C 35.320312 -14.4375 36.125 -16.925781 36.125 -20.0625 L 36.125 -24.171875 C 36.125 -27.296875 35.320312 -29.78125 33.71875 -31.625 C 32.113281 -33.46875 29.785156 -34.390625 26.734375 -34.390625 Z M 26.734375 -34.390625 "/></g></g></g><g fill="rgb(23.919678%, 30.198669%, 32.939148%)" fill-opacity="1"><g transform="translate(201.988762, 357.278705)"><g><path d="M 3.921875 0 L 3.921875 -12.796875 L 17.546875 -12.796875 L 17.546875 0 Z M 3.921875 0 "/></g></g></g><g fill="rgb(23.919678%, 30.198669%, 32.939148%)" fill-opacity="1"><g transform="translate(229.115514, 357.278705)"><g><path d="M 21.796875 -45 C 25.304688 -45 28.359375 -44.460938 30.953125 -43.390625 C 33.546875 -42.316406 35.515625 -40.867188 36.859375 -39.046875 C 38.210938 -37.222656 38.890625 -35.195312 38.890625 -32.96875 C 38.890625 -30.75 38.289062 -28.75 37.09375 -26.96875 C 35.894531 -25.1875 34.351562 -23.929688 32.46875 -23.203125 L 32.46875 -22.953125 C 34.90625 -22.179688 36.796875 -20.835938 38.140625 -18.921875 C 39.492188 -17.015625 40.171875 -14.710938 40.171875 -12.015625 C 40.003906 -8.242188 38.363281 -5.171875 35.25 -2.796875 C 32.144531 -0.421875 27.570312 0.765625 21.53125 0.765625 C 17.375 0.765625 13.878906 0.207031 11.046875 -0.90625 C 8.222656 -2.019531 6.125 -3.539062 4.75 -5.46875 C 3.382812 -7.394531 2.703125 -9.554688 2.703125 -11.953125 L 2.703125 -13.3125 L 14.015625 -13.3125 C 14.015625 -9.789062 16.242188 -8.03125 20.703125 -8.03125 C 25.160156 -8.03125 27.390625 -10.003906 27.390625 -13.953125 C 27.390625 -15.453125 26.96875 -16.597656 26.125 -17.390625 C 25.289062 -18.179688 24.210938 -18.578125 22.890625 -18.578125 L 18.1875 -18.578125 L 18.1875 -26.484375 L 21.859375 -26.484375 C 23.179688 -26.484375 24.257812 -26.878906 25.09375 -27.671875 C 25.9375 -28.460938 26.359375 -29.609375 26.359375 -31.109375 C 26.359375 -32.523438 25.851562 -33.722656 24.84375 -34.703125 C 23.832031 -35.691406 22.453125 -36.1875 20.703125 -36.1875 C 18.859375 -36.1875 17.421875 -35.710938 16.390625 -34.765625 C 15.359375 -33.828125 14.84375 -32.675781 14.84375 -31.3125 L 4.109375 -31.3125 L 4.109375 -32.90625 C 4.109375 -35.132812 4.804688 -37.171875 6.203125 -39.015625 C 7.597656 -40.859375 9.632812 -42.316406 12.3125 -43.390625 C 14.988281 -44.460938 18.148438 -45 21.796875 -45 Z M 21.796875 -45 "/></g></g></g><g fill="rgb(23.919678%, 30.198669%, 32.939148%)" fill-opacity="1"><g transform="translate(277.711988, 357.278705)"><g><path d="M 36.390625 0 L 17.8125 -21.46875 L 17.8125 0 L 4.75 0 L 4.75 -44.21875 L 17.15625 -44.21875 L 35.734375 -22.4375 L 35.734375 -44.21875 L 48.796875 -44.21875 L 48.796875 0 Z M 36.390625 0 "/></g></g></g></svg>