<svg xmlns="http://www.w3.org/2000/svg" xmlns:xlink="http://www.w3.org/1999/xlink" width="350" zoomAndPan="magnify" viewBox="0 0 262.5 89.999999" height="120" preserveAspectRatio="xMidYMid meet" version="1.0"><defs><g><g id="id1"/></g><clipPath id="id2"><path d="M 56 12.214844 L 98 12.214844 L 98 66 L 56 66 Z M 56 12.214844 " clip-rule="nonzero"/></clipPath><clipPath id="id3"><path d="M 9 70 L 82 70 L 82 88.714844 L 9 88.714844 Z M 9 70 " clip-rule="nonzero"/></clipPath></defs><path fill="rgb(65.098572%, 65.098572%, 65.098572%)" d="M 94.277344 19.648438 L 87.5625 28.042969 C 88.234375 28.46875 88.894531 28.914062 89.558594 29.378906 L 101.941406 25.265625 C 99.578125 23.132812 97.023438 21.257812 94.277344 19.648438 Z M 94.277344 19.648438 " fill-opacity="1" fill-rule="nonzero"/><path fill="rgb(65.098572%, 65.098572%, 65.098572%)" d="M 100.917969 76.960938 L 113.96875 76.960938 C 115.070312 74.179688 115.898438 71.316406 116.453125 68.371094 C 117.003906 65.429688 117.269531 62.457031 117.25 59.464844 C 117.230469 56.46875 116.925781 53.503906 116.332031 50.566406 C 115.742188 47.628906 114.875 44.777344 113.730469 42.011719 L 103.753906 49.933594 C 104.367188 52.175781 104.765625 54.453125 104.949219 56.769531 C 105.136719 59.089844 105.109375 61.402344 104.867188 63.714844 C 104.625 66.023438 104.171875 68.292969 103.507812 70.523438 C 102.84375 72.75 101.980469 74.894531 100.917969 76.960938 Z M 100.917969 76.960938 " fill-opacity="1" fill-rule="nonzero"/><path fill="rgb(65.098572%, 65.098572%, 65.098572%)" d="M 31.664062 49.304688 C 32.214844 47.417969 32.90625 45.585938 33.742188 43.808594 C 34.578125 42.03125 35.546875 40.332031 36.648438 38.707031 C 37.753906 37.082031 38.976562 35.554688 40.316406 34.121094 C 41.660156 32.691406 43.105469 31.371094 44.65625 30.167969 C 46.203125 28.960938 47.835938 27.886719 49.554688 26.9375 C 51.273438 25.988281 53.054688 25.183594 54.898438 24.515625 C 56.742188 23.847656 58.628906 23.328125 60.554688 22.957031 C 62.480469 22.585938 64.421875 22.367188 66.382812 22.300781 L 71.160156 13.273438 L 70.800781 13.273438 C 69.5 13.273438 68.203125 13.328125 66.90625 13.4375 C 65.609375 13.546875 64.320312 13.710938 63.039062 13.929688 C 61.757812 14.144531 60.484375 14.417969 59.226562 14.742188 C 57.96875 15.066406 56.722656 15.445312 55.496094 15.875 C 54.265625 16.304688 53.058594 16.78125 51.871094 17.3125 C 50.683594 17.84375 49.519531 18.425781 48.382812 19.054688 C 47.242188 19.683594 46.132812 20.359375 45.050781 21.082031 C 43.96875 21.804688 42.917969 22.570312 41.898438 23.378906 C 40.882812 24.191406 39.898438 25.042969 38.953125 25.9375 C 38.007812 26.828125 37.097656 27.761719 36.230469 28.730469 C 35.363281 29.699219 34.535156 30.703125 33.75 31.742188 C 32.964844 32.785156 32.226562 33.855469 31.53125 34.953125 C 30.839844 36.054688 30.191406 37.183594 29.589844 38.339844 C 28.992188 39.496094 28.441406 40.675781 27.941406 41.878906 C 27.4375 43.078125 26.988281 44.300781 26.589844 45.539062 C 26.191406 46.78125 25.847656 48.035156 25.550781 49.304688 Z M 31.664062 49.304688 " fill-opacity="1" fill-rule="nonzero"/><g clip-path="url(#id2)"><path fill="rgb(93.728638%, 24.708557%, 24.308777%)" d="M 76.453125 12.214844 L 58.246094 46.726562 L 69.546875 43.855469 L 56.992188 65.023438 L 98 30.863281 L 75.40625 36.523438 L 94.863281 12.214844 Z M 76.453125 12.214844 " fill-opacity="1" fill-rule="nonzero"/></g><path fill="rgb(32.939148%, 32.939148%, 32.939148%)" d="M 53.660156 67.117188 L 60.957031 50.144531 L 49.417969 54.472656 L 59.71875 34.945312 C 58.222656 35.074219 56.753906 35.347656 55.308594 35.757812 C 53.867188 36.167969 52.472656 36.710938 51.132812 37.386719 C 49.789062 38.0625 48.523438 38.859375 47.332031 39.777344 C 46.144531 40.691406 45.050781 41.714844 44.050781 42.835938 L 34.617188 53.496094 L 22.472656 53.496094 C 21.59375 53.496094 20.722656 53.582031 19.859375 53.753906 C 18.996094 53.925781 18.160156 54.179688 17.347656 54.515625 C 16.535156 54.855469 15.761719 55.265625 15.03125 55.753906 C 14.300781 56.246094 13.625 56.800781 13.003906 57.421875 C 12.378906 58.046875 11.824219 58.722656 11.335938 59.457031 C 10.847656 60.1875 10.433594 60.960938 10.097656 61.773438 C 9.761719 62.585938 9.507812 63.425781 9.335938 64.289062 C 9.164062 65.152344 9.078125 66.027344 9.078125 66.90625 L 9.078125 67.117188 Z M 53.660156 67.117188 " fill-opacity="1" fill-rule="nonzero"/><path fill="rgb(32.939148%, 32.939148%, 32.939148%)" d="M 113.691406 34.847656 L 100.152344 34.847656 L 59.699219 67.117188 L 84.980469 67.117188 L 101.347656 51.609375 L 91.515625 51.609375 Z M 113.691406 34.847656 " fill-opacity="1" fill-rule="nonzero"/><g clip-path="url(#id3)"><path fill="rgb(32.939148%, 32.939148%, 32.939148%)" d="M 9.078125 70.261719 L 9.078125 74.347656 C 9.078125 74.722656 9.152344 75.085938 9.292969 75.433594 C 9.4375 75.777344 9.640625 76.085938 9.90625 76.351562 C 10.171875 76.613281 10.476562 76.820312 10.824219 76.964844 C 11.167969 77.105469 11.53125 77.179688 11.90625 77.179688 L 17.6875 77.179688 C 17.832031 77.980469 18.042969 78.765625 18.324219 79.53125 C 18.601562 80.296875 18.949219 81.03125 19.355469 81.738281 C 19.765625 82.441406 20.230469 83.105469 20.757812 83.730469 C 21.28125 84.355469 21.855469 84.925781 22.480469 85.449219 C 23.101562 85.972656 23.769531 86.4375 24.472656 86.847656 C 25.179688 87.253906 25.914062 87.597656 26.679688 87.875 C 27.445312 88.152344 28.230469 88.363281 29.03125 88.503906 C 29.832031 88.644531 30.640625 88.714844 31.453125 88.714844 C 32.269531 88.714844 33.078125 88.644531 33.878906 88.503906 C 34.679688 88.363281 35.464844 88.152344 36.230469 87.875 C 36.992188 87.597656 37.730469 87.253906 38.433594 86.847656 C 39.140625 86.4375 39.804688 85.972656 40.429688 85.449219 C 41.054688 84.925781 41.628906 84.355469 42.152344 83.730469 C 42.675781 83.105469 43.144531 82.441406 43.550781 81.738281 C 43.960938 81.03125 44.304688 80.296875 44.585938 79.53125 C 44.867188 78.765625 45.078125 77.980469 45.222656 77.179688 L 74.351562 77.179688 L 81.65625 70.261719 Z M 9.078125 70.261719 " fill-opacity="1" fill-rule="nonzero"/></g><g fill="rgb(32.939148%, 32.939148%, 32.939148%)" fill-opacity="1"><g transform="translate(126.485627, 80.973075)"><g><path d="M 11.953125 -19.921875 C 13.835938 -19.921875 15.523438 -19.632812 17.015625 -19.0625 C 18.515625 -18.5 19.707031 -17.660156 20.59375 -16.546875 C 21.476562 -15.441406 21.921875 -14.09375 21.921875 -12.5 L 15.921875 -12.5 C 15.921875 -13.3125 15.554688 -13.96875 14.828125 -14.46875 C 14.109375 -14.976562 13.238281 -15.234375 12.21875 -15.234375 C 10.738281 -15.234375 9.617188 -14.835938 8.859375 -14.046875 C 8.097656 -13.265625 7.71875 -12.148438 7.71875 -10.703125 L 7.71875 -8.875 C 7.71875 -7.4375 8.097656 -6.320312 8.859375 -5.53125 C 9.617188 -4.75 10.738281 -4.359375 12.21875 -4.359375 C 13.238281 -4.359375 14.109375 -4.597656 14.828125 -5.078125 C 15.554688 -5.566406 15.921875 -6.191406 15.921875 -6.953125 L 11.46875 -6.953125 L 11.46875 -10.9375 L 21.921875 -10.9375 L 21.921875 0 L 18.671875 0 L 18.046875 -1.9375 C 16.265625 -0.414062 13.929688 0.34375 11.046875 0.34375 C 7.796875 0.34375 5.351562 -0.503906 3.71875 -2.203125 C 2.09375 -3.898438 1.28125 -6.429688 1.28125 -9.796875 C 1.28125 -13.117188 2.203125 -15.632812 4.046875 -17.34375 C 5.898438 -19.0625 8.535156 -19.921875 11.953125 -19.921875 Z M 11.953125 -19.921875 "/></g></g></g><g fill="rgb(32.939148%, 32.939148%, 32.939148%)" fill-opacity="1"><g transform="translate(152.730866, 80.973075)"><g><path d="M 11.84375 -19.921875 C 15.21875 -19.921875 17.828125 -19.054688 19.671875 -17.328125 C 21.515625 -15.609375 22.4375 -13.097656 22.4375 -9.796875 C 22.4375 -6.492188 21.515625 -3.976562 19.671875 -2.25 C 17.828125 -0.519531 15.21875 0.34375 11.84375 0.34375 C 8.46875 0.34375 5.863281 -0.515625 4.03125 -2.234375 C 2.195312 -3.953125 1.28125 -6.472656 1.28125 -9.796875 C 1.28125 -13.117188 2.195312 -15.632812 4.03125 -17.34375 C 5.863281 -19.0625 8.46875 -19.921875 11.84375 -19.921875 Z M 11.84375 -15.234375 C 10.5 -15.234375 9.472656 -14.820312 8.765625 -14 C 8.066406 -13.1875 7.71875 -12.085938 7.71875 -10.703125 L 7.71875 -8.875 C 7.71875 -7.488281 8.066406 -6.390625 8.765625 -5.578125 C 9.472656 -4.765625 10.5 -4.359375 11.84375 -4.359375 C 13.1875 -4.359375 14.210938 -4.765625 14.921875 -5.578125 C 15.640625 -6.390625 16 -7.488281 16 -8.875 L 16 -10.703125 C 16 -12.085938 15.640625 -13.1875 14.921875 -14 C 14.210938 -14.820312 13.1875 -15.234375 11.84375 -15.234375 Z M 11.84375 -15.234375 "/></g></g></g><g fill="rgb(32.939148%, 32.939148%, 32.939148%)" fill-opacity="1"><g transform="translate(178.976104, 80.973075)"><g><path d="M 1.734375 0 L 1.734375 -5.671875 L 7.765625 -5.671875 L 7.765625 0 Z M 1.734375 0 "/></g></g></g><g fill="rgb(32.939148%, 32.939148%, 32.939148%)" fill-opacity="1"><g transform="translate(190.988926, 80.973075)"><g><path d="M 9.65625 -19.921875 C 11.207031 -19.921875 12.554688 -19.679688 13.703125 -19.203125 C 14.859375 -18.734375 15.734375 -18.09375 16.328125 -17.28125 C 16.921875 -16.476562 17.21875 -15.585938 17.21875 -14.609375 C 17.21875 -13.617188 16.953125 -12.726562 16.421875 -11.9375 C 15.890625 -11.15625 15.207031 -10.601562 14.375 -10.28125 L 14.375 -10.15625 C 15.457031 -9.820312 16.296875 -9.234375 16.890625 -8.390625 C 17.492188 -7.546875 17.796875 -6.523438 17.796875 -5.328125 C 17.710938 -3.648438 16.984375 -2.285156 15.609375 -1.234375 C 14.234375 -0.179688 12.207031 0.34375 9.53125 0.34375 C 7.695312 0.34375 6.148438 0.0976562 4.890625 -0.390625 C 3.640625 -0.890625 2.710938 -1.566406 2.109375 -2.421875 C 1.503906 -3.273438 1.203125 -4.234375 1.203125 -5.296875 L 1.203125 -5.890625 L 6.203125 -5.890625 C 6.203125 -4.335938 7.191406 -3.5625 9.171875 -3.5625 C 11.140625 -3.5625 12.125 -4.429688 12.125 -6.171875 C 12.125 -6.835938 11.9375 -7.347656 11.5625 -7.703125 C 11.195312 -8.054688 10.722656 -8.234375 10.140625 -8.234375 L 8.0625 -8.234375 L 8.0625 -11.734375 L 9.671875 -11.734375 C 10.265625 -11.734375 10.742188 -11.90625 11.109375 -12.25 C 11.484375 -12.601562 11.671875 -13.113281 11.671875 -13.78125 C 11.671875 -14.40625 11.445312 -14.9375 11 -15.375 C 10.550781 -15.8125 9.941406 -16.03125 9.171875 -16.03125 C 8.347656 -16.03125 7.707031 -15.820312 7.25 -15.40625 C 6.800781 -14.988281 6.578125 -14.472656 6.578125 -13.859375 L 1.828125 -13.859375 L 1.828125 -14.578125 C 1.828125 -15.566406 2.132812 -16.46875 2.75 -17.28125 C 3.363281 -18.09375 4.265625 -18.734375 5.453125 -19.203125 C 6.640625 -19.679688 8.039062 -19.921875 9.65625 -19.921875 Z M 9.65625 -19.921875 "/></g></g></g><g fill="rgb(32.939148%, 32.939148%, 32.939148%)" fill-opacity="1"><g transform="translate(212.509005, 80.973075)"><g><path d="M 16.109375 0 L 7.890625 -9.515625 L 7.890625 0 L 2.109375 0 L 2.109375 -19.59375 L 7.59375 -19.59375 L 15.828125 -9.9375 L 15.828125 -19.59375 L 21.609375 -19.59375 L 21.609375 0 Z M 16.109375 0 "/></g></g></g></svg>